<?xml version="1.0" encoding="utf-8"?>
<!-- Generator: Adobe Illustrator 25.2.0, SVG Export Plug-In . SVG Version: 6.00 Build 0)  -->
<svg version="1.1" id="Слой_1" xmlns="http://www.w3.org/2000/svg" xmlns:xlink="http://www.w3.org/1999/xlink" x="0px" y="0px"
	 viewBox="0 0 402.7 85.5" style="enable-background:new 0 0 402.7 85.5;" xml:space="preserve">
<style type="text/css">
	.st0{fill:none;}
	.st1{fill:none;stroke:#000000;stroke-width:2;stroke-miterlimit:10;}
</style>
<g>
	<rect x="95.3" y="6.2" class="st0" width="302.3" height="71.6"/>
	<path d="M143.6,73h-41V6.3h12.6v55.8h28.4V73z"/>
	<path d="M164.5,73h-12V6.3h12V73z"/>
	<path d="M172.2,56.9l11.7-2.5c1.4,6.6,6.8,9.9,16.1,9.9c4.3,0,7.5-0.8,9.8-2.5c2.3-1.7,3.4-3.8,3.4-6.3c0-1.8-0.5-3.5-1.6-5.1
		c-1-1.5-3.3-2.8-6.7-3.6l-12.7-3.3c-4.4-1.1-7.6-2.4-9.7-3.9c-2.1-1.4-3.8-3.5-5-6.1c-1.3-2.6-1.9-5.5-1.9-8.4
		c0-6,2.2-10.7,6.6-14.3c4.4-3.6,10.1-5.4,17-5.4c5.7,0,10.8,1.3,15.4,3.8c4.5,2.5,7.4,6.1,8.6,10.6l-11.4,2.8
		c-1.8-5-5.9-7.6-12.3-7.6c-3.7,0-6.6,0.8-8.6,2.3c-2,1.6-3,3.5-3,6c0,3.8,3.1,6.5,9.3,8l11.3,2.8c6.9,1.7,11.5,4.3,13.8,7.6
		s3.5,7.1,3.5,11.2c0,6.5-2.5,11.7-7.4,15.5c-4.9,3.8-11.3,5.6-19.2,5.6c-6.6,0-12.4-1.4-17.4-4.2C177.1,67.1,173.8,62.8,172.2,56.9
		z"/>
	<path d="M259.6,73h-12.9V16.6h-17.7V6.3h48.3v10.3h-17.7V73z"/>
	<path d="M327.9,73h-43.3V6.3h42.9v9.9h-30.9v18.1h24.8V44h-24.8v18.7h31.3V73z"/>
	<path d="M390.2,73h-12.7l-10.4-27.4h-16.9V73h-12V6.3h28.9c8,0,13.9,1.8,17.7,5.4c3.8,3.6,5.7,8.3,5.7,14.1c0,8.6-4,14.5-12,17.7
		L390.2,73z M350.3,36h14.9c4.3,0,7.6-0.9,9.7-2.7c2.1-1.8,3.2-4.3,3.2-7.5c0-2.9-1-5.3-3.1-7.1c-2.1-1.8-5-2.7-8.7-2.7h-15.9V36z"
		/>
</g>
<rect x="9.9" y="17" class="st1" width="76.4" height="55"/>
<line class="st1" x1="15.5" y1="11.8" x2="80.8" y2="11.8"/>
<line class="st1" x1="22.3" y1="7.2" x2="73.9" y2="7.2"/>
<line class="st1" x1="4.5" y1="79.6" x2="397.6" y2="79.6"/>
<g>
</g>
<g>
</g>
<g>
</g>
<g>
</g>
<g>
</g>
<g>
</g>
</svg>
